<?xml version="1.0" standalone="no"?><!DOCTYPE svg PUBLIC "-//W3C//DTD SVG 1.1//EN" "http://www.w3.org/Graphics/SVG/1.1/DTD/svg11.dtd"><svg t="1542115511721" class="icon" style="" viewBox="0 0 1024 1024" version="1.1" xmlns="http://www.w3.org/2000/svg" p-id="3907" xmlns:xlink="http://www.w3.org/1999/xlink" width="200" height="200"><defs><style type="text/css"></style></defs><path d="M495.0485 881.621c-41.265 0-81.765-6.8445-120.3705-20.331a5.193 5.193 0 0 1 3.4245-9.801 353.6145 353.6145 0 0 0 116.946 19.7505c195.4125 0 354.393-158.9805 354.393-354.3975a354.0195 354.0195 0 0 0-17.721-110.9835 5.184 5.184 0 1 1 9.8505-3.249 364.383 364.383 0 0 1 18.2475 114.2325c0.0045 201.1365-163.6335 364.779-364.77 364.779zM306.2735 828.143c-0.9315 0-1.8765-0.252-2.7225-0.7785-108.4995-67.0455-173.277-183.1275-173.277-310.5225 0-201.1365 163.638-364.779 364.7745-364.779 125.028 0 239.967 62.9505 307.458 168.3945a5.1885 5.1885 0 1 1-8.748 5.5935c-65.5695-102.447-177.2415-163.6065-298.71-163.6065-195.4125 0-354.393 158.9805-354.393 354.3975 0 123.768 62.9325 236.5515 168.354 301.698a5.184 5.184 0 0 1-2.736 9.603z" fill="#2c2c2c" p-id="3908"></path><path d="M195.344 890.54c-24.7545 0-44.1945-6.8085-57.6585-20.43-27.7515-28.0755-26.28-81.108 4.248-153.3735a5.193 5.193 0 0 1 9.558 4.0455c-28.35 67.0995-30.6315 117.5445-6.426 142.0335 49.455 50.0445 204.435-12.9195 368.496-149.7015a5.193 5.193 0 0 1 6.6465 7.9695c-81.0405 67.5675-163.0755 119.8845-230.9985 147.3075-36.5445 14.7645-68.0895 22.149-93.8655 22.149zM699.4655 540.845a5.184 5.184 0 0 1-3.96-8.532c137.088-162.4815 198.333-310.8645 148.932-360.8415-24.534-24.8175-75.906-22.7565-144.657 5.8365a5.1975 5.1975 0 0 1-6.7815-2.799 5.1795 5.1795 0 0 1 2.799-6.7815c73.9665-30.762 127.908-31.986 156.0195-3.5505 54.171 54.801-5.4585 205.434-148.3875 374.823-1.0215 1.2195-2.4885 1.845-3.9645 1.845z" fill="#2c2c2c" p-id="3909"></path><path d="M597.4505 742.463l-98.9325-95.778 10.071-10.404 57.618 2.6235 66.6315-68.823c8.9955-9.288 21.1545-15.129 35.0145-16.8075l0.5805-0.072c9.297-1.1295 18.8595 8.1315 18.036 17.46l-0.0495 0.5805c-1.233 13.9095-6.6735 26.253-15.6645 35.541l-66.6315 68.823 3.402 56.4525-10.0755 10.404z" fill="#2c2c2c" p-id="3910"></path><path d="M84.473 306.485m-8.118 0a8.118 8.118 0 1 0 16.236 0 8.118 8.118 0 1 0-16.236 0Z" fill="#2c2c2c" p-id="3911"></path><path d="M498.518 70.118m-8.118 0a8.118 8.118 0 1 0 16.236 0 8.118 8.118 0 1 0-16.236 0Z" fill="#2c2c2c" p-id="3912"></path><path d="M935.468 346.148m-8.118 0a8.118 8.118 0 1 0 16.236 0 8.118 8.118 0 1 0-16.236 0Z" fill="#2c2c2c" p-id="3913"></path><path d="M556.2845 725.57c-3.2445 0-6.579-1.3995-9.153-3.888v-0.0045l-25.1235-24.3225c-2.97-2.871-4.518-6.795-4.14-10.494a9.6885 9.6885 0 0 1 4.4235-7.281l39.609-25.1055c4.3515-2.7675 10.386-1.791 14.661 2.34l9.3195 9.0315c4.2795 4.14 5.436 10.1385 2.817 14.58l-23.8095 40.401a9.7065 9.7065 0 0 1-7.1325 4.653c-0.486 0.0585-0.981 0.09-1.4715 0.09z m-1.9395-11.349a3.285 3.285 0 0 0 1.8135 0.972l23.598-40.041c-0.0225-0.0855-0.189-0.9765-1.098-1.854l-9.315-9.027c-0.918-0.8865-1.818-1.0125-2.0295-0.9675l-39.114 24.822a3.285 3.285 0 0 0 1.026 1.7775l25.119 24.318z" fill="#2c2c2c" p-id="3914"></path><path d="M84.473 306.485m-8.118 0a8.118 8.118 0 1 0 16.236 0 8.118 8.118 0 1 0-16.236 0Z" fill="#2c2c2c" p-id="3915"></path><path d="M498.518 70.118m-8.118 0a8.118 8.118 0 1 0 16.236 0 8.118 8.118 0 1 0-16.236 0Z" fill="#2c2c2c" p-id="3916"></path><path d="M935.468 346.148m-12.177 0a12.177 12.177 0 1 0 24.354 0 12.177 12.177 0 1 0-24.354 0Z" fill="#2c2c2c" p-id="3917"></path><path d="M320.0255 953.882m-8.118 0a8.118 8.118 0 1 0 16.236 0 8.118 8.118 0 1 0-16.236 0Z" fill="#2c2c2c" p-id="3918"></path><path d="M132.6635 129.5225l16.803-16.803a5.193 5.193 0 0 0-7.3395-7.3395l-16.803 16.803-16.803-16.803a5.193 5.193 0 0 0-7.3395 7.3395l16.803 16.803-16.803 16.803a5.193 5.193 0 0 0 7.335 7.3395l16.803-16.803 16.803 16.803a5.1795 5.1795 0 0 0 7.335 0c2.025-2.025 2.025-5.3145 0-7.3395l-16.794-16.803zM873.6695 896.903l16.803-16.803a5.193 5.193 0 0 0-7.3395-7.3395l-16.803 16.803-16.803-16.803a5.193 5.193 0 0 0-7.3395 7.3395l16.803 16.803-16.803 16.803a5.193 5.193 0 0 0 7.335 7.3395l16.803-16.803 16.803 16.803a5.1705 5.1705 0 0 0 7.335 0c2.025-2.025 2.025-5.3145 0-7.3395l-16.794-16.803z" fill="#2c2c2c" p-id="3919"></path><path d="M550.7405 717.947l-25.1235-24.3225c-3.2535-3.15-3.5145-7.7895-0.5445-9.6705l39.609-25.101c2.286-1.449 5.769-0.7425 8.2755 1.6875l9.324 9.027c2.5065 2.4255 3.33 5.8815 1.953 8.217l-23.805 40.3965c-1.791 3.0285-6.4395 2.916-9.6885-0.234z" fill="#2c2c2c" p-id="3920"></path><path d="M654.4835 596.9645l-49.518 46.0035 13.4595 17.8605 50.364-52.02z" fill="#2c2c2c" p-id="3921"></path><path d="M684.854 554.2775c-4.842-4.6845-11.0565-6.9795-17.0415-6.228l-0.5805 0.072c-15.093 1.8315-28.2735 8.1765-38.1195 18.351l-65.007 67.14-55.2825-2.5155c-1.5075 0.0045-2.9295 0.504-3.9645 1.5795l-10.071 10.404a5.1885 5.1885 0 0 0 0.117 7.335l98.937 95.778c0.9675 0.9405 2.2635 1.4625 3.609 1.4625h0.0855c1.377-0.0225 2.691-0.594 3.645-1.584l10.0665-10.404c1.017-1.044 1.5435-2.466 1.4535-3.9195l-3.267-54.171 65.043-67.1895c9.846-10.1745 15.7635-23.553 17.1135-38.718l0.045-0.5535c0.5265-5.9265-2.007-12.222-6.7815-16.839z m-72.9315 89.307l42.759-39.717 6.4755 5.3595-42.2415 43.632-6.993-9.2745z m69.327-72.8055c-1.071 12.0285-5.5485 22.653-12.915 30.9105l-10.539-8.7255a5.1975 5.1975 0 0 0-6.8445 0.198l-49.5225 46.0035a5.193 5.193 0 0 0-0.612 6.9255l10.7955 14.3145-11.2185 11.5875a5.157 5.157 0 0 0-1.4535 3.9195l3.267 54.171-4.869 5.031-91.4805-88.56 4.833-4.9905 55.2825 2.5155c1.4895-0.0315 2.925-0.504 3.9645-1.5795l66.636-68.823c8.172-8.4465 19.215-13.725 31.914-15.2685l0.5805-0.072c2.8575-0.333 6.0345 0.9225 8.5725 3.384 2.5425 2.4615 3.915 5.6295 3.6585 8.496l-0.0495 0.5625z" fill="#2c2c2c" p-id="3922"></path><path d="M585.881 665.8415l-9.3195-9.0315c-4.2795-4.131-10.3095-5.103-14.661-2.34l-39.609 25.1055a9.684 9.684 0 0 0-4.4235 7.281c-0.378 3.699 1.17 7.623 4.14 10.494l25.1235 24.3225v0.0045c2.574 2.493 5.9085 3.888 9.153 3.888 0.4905 0 0.9855-0.0315 1.4715-0.0945a9.7065 9.7065 0 0 0 7.1325-4.653l23.8095-40.401c2.619-4.4415 1.4625-10.44-2.817-14.5755z m-29.7225 49.347a3.2985 3.2985 0 0 1-1.8135-0.9675l-25.1235-24.327a3.2985 3.2985 0 0 1-1.026-1.7775l4.257-2.7 26.577 24.903-2.871 4.869z m6.2505-10.602l-24.291-22.761 29.196-18.5265c0.2115-0.045 1.1115 0.081 2.0295 0.9675l9.3195 9.027c0.9045 0.8775 1.0755 1.773 1.0935 1.854l-17.3475 29.439z" fill="#2c2c2c" p-id="3923"></path></svg>