<?xml version="1.0" standalone="no"?><!DOCTYPE svg PUBLIC "-//W3C//DTD SVG 1.1//EN" "http://www.w3.org/Graphics/SVG/1.1/DTD/svg11.dtd"><svg t="1542178305217" class="icon" style="" viewBox="0 0 1024 1024" version="1.1" xmlns="http://www.w3.org/2000/svg" p-id="2540" xmlns:xlink="http://www.w3.org/1999/xlink" width="200" height="200"><defs><style type="text/css"></style></defs><path d="M586.322581 355.096774m-355.096775 0a355.096774 355.096774 0 1 0 710.193549 0 355.096774 355.096774 0 1 0-710.193549 0Z" fill="#E5F2FF" p-id="2541"></path><path d="M322.064516 957.935484a218.83871 41.290323 0 1 0 437.677419 0 218.83871 41.290323 0 1 0-437.677419 0Z" fill="#E5F2FF" p-id="2542"></path><path d="M512.825806 772.129032C322.064516 772.129032 167.63871 614.4 167.63871 421.16129S322.064516 70.193548 512.825806 70.193548 857.187097 227.922581 857.187097 421.16129 702.76129 772.129032 512.825806 772.129032z m0-658.167742c-166.812903 0-302.245161 137.909677-302.245161 307.2S346.012903 728.36129 512 728.36129 814.245161 590.451613 814.245161 421.16129 678.812903 113.96129 512.825806 113.96129z" fill="#0083FF" p-id="2543"></path><path d="M88.36129 497.96129c-3.303226-21.470968 0-42.941935 10.735484-65.238709 5.780645-10.735484 18.167742-14.864516 28.903226-9.083871 10.735484 5.780645 14.864516 18.993548 9.083871 28.903225-6.606452 13.212903-9.083871 24.774194-6.606452 37.161291 13.212903 73.496774 192.412903 112.309677 406.296775 73.496774 156.903226-28.903226 294.812903-94.141935 341.058064-161.858065 12.387097-18.167742 17.341935-34.683871 14.864516-50.374193-5.780645-30.554839-44.593548-58.632258-106.529032-73.496774-11.56129-3.303226-18.993548-14.864516-15.690323-26.425807 2.477419-11.56129 14.864516-18.993548 26.425807-15.690322 80.103226 19.819355 129.651613 58.632258 137.909677 108.180645 4.954839 27.251613-2.477419 55.329032-21.470968 83.406451-53.677419 78.451613-198.193548 149.470968-369.135483 180.025807-57.806452 9.909677-115.612903 15.690323-168.464517 15.690323-47.896774 0-91.664516-4.129032-131.303225-12.387097-90.83871-18.993548-146.167742-58.632258-156.07742-112.309678z" fill="#0083FF" p-id="2544"></path><path d="M431.070968 300.593548c0 13.212903-13.212903 21.470968-21.470968 21.470968-13.212903 0-21.470968-9.083871-21.470968-21.470968v-39.638709c0-12.387097 8.258065-21.470968 21.470968-21.470968s21.470968 9.083871 21.470968 21.470968v39.638709z m196.541935 0c0 13.212903-8.258065 21.470968-21.470968 21.470968s-21.470968-9.083871-21.470967-21.470968v-39.638709c0-13.212903 8.258065-21.470968 21.470967-21.470968s21.470968 9.083871 21.470968 21.470968v39.638709zM421.987097 443.458065c-4.129032 0-8.258065 0-13.212903-4.129033-8.258065-9.083871-8.258065-21.470968 0-30.554838 21.470968-26.425806 59.458065-43.767742 98.270967-43.767742s76.8 17.341935 102.4 43.767742c8.258065 9.083871 8.258065 21.470968 0 30.554838s-21.470968 9.083871-29.729032 0c-38.812903-43.767742-106.529032-38.812903-145.341935 0-3.303226 4.129032-7.432258 4.129032-12.387097 4.129033z" fill="#0083FF" p-id="2545"></path></svg>